<svg width="12" height="14" viewBox="0 0 12 14" fill="none" xmlns="http://www.w3.org/2000/svg">
<path d="M7.75 5.25004H8.91667V6.41671H7.75V5.25004ZM8.91667 2.91671H7.75V4.08337H8.91667V2.91671ZM5.41667 8.75004H6.58333V7.58337H5.41667V8.75004ZM6.58333 2.91671H5.41667V4.08337H6.58333V2.91671ZM5.41667 6.41671H6.58333V5.25004H5.41667V6.41671ZM4.25 2.91671H3.08333V4.08337H4.25V2.91671ZM4.25 5.25004H3.08333V6.41671H4.25V5.25004ZM7.4875 12.25H6.58333V10.2084H5.41667V12.25H1.91667V1.75004H10.0833V6.43421C10.4975 6.46921 10.8942 6.59754 11.25 6.78421V0.583374H0.75V13.4167H8.28083C8.04167 13.09 7.75 12.6934 7.4875 12.25ZM3.08333 11.0834H4.25V9.91671H3.08333V11.0834ZM4.25 7.58337H3.08333V8.75004H4.25V7.58337ZM11.8333 9.62504C11.8333 11.1417 9.79167 13.4167 9.79167 13.4167C9.79167 13.4167 7.75 11.1417 7.75 9.62504C7.75 8.51671 8.68333 7.58337 9.79167 7.58337C10.9 7.58337 11.8333 8.51671 11.8333 9.62504ZM10.4917 9.68337C10.4917 9.33337 10.1417 8.98337 9.79167 8.98337C9.44167 8.98337 9.09167 9.27504 9.09167 9.68337C9.09167 10.0334 9.38333 10.3834 9.79167 10.3834C10.2 10.3834 10.55 10.0334 10.4917 9.68337Z" fill="#2C3531"/>
</svg>
