<svg width="137" height="28" viewBox="0 0 137 28" fill="none" xmlns="http://www.w3.org/2000/svg">
<rect x="1" y="1" width="28" height="26" rx="8" fill="#E9F4F1"/>
<path d="M17.4459 17.4368L24.5 24.5M19.8333 11.6667C19.8333 16.177 16.177 19.8333 11.6667 19.8333C7.15634 19.8333 3.5 16.177 3.5 11.6667C3.5 7.15634 7.15634 3.5 11.6667 3.5C16.177 3.5 19.8333 7.15634 19.8333 11.6667Z" stroke="#116466" stroke-width="2" stroke-linecap="round" stroke-linejoin="round"/>
<path d="M35.065 9.815H41.455C41.835 9.815 42.025 10.005 42.025 10.385C42.025 10.755 41.835 10.94 41.455 10.94H38.905V19.43C38.905 19.81 38.71 20 38.32 20H38.185C37.795 20 37.6 19.81 37.6 19.43V10.94H35.065C34.685 10.94 34.495 10.755 34.495 10.385C34.495 10.005 34.685 9.815 35.065 9.815ZM44.6254 9.815H49.8004C50.1704 9.815 50.3554 10.005 50.3554 10.385C50.3554 10.755 50.1704 10.94 49.8004 10.94H45.3454V14.15H49.3054C49.6754 14.15 49.8604 14.34 49.8604 14.72C49.8604 15.09 49.6754 15.275 49.3054 15.275H45.3454V18.875H49.8004C50.1704 18.875 50.3554 19.065 50.3554 19.445C50.3554 19.815 50.1704 20 49.8004 20H44.6254C44.2354 20 44.0404 19.81 44.0404 19.43V10.385C44.0404 10.005 44.2354 9.815 44.6254 9.815ZM56.2826 9.83H56.4476C56.6976 9.83 56.8576 9.86 56.9276 9.92C57.0076 9.98 57.0576 10.02 57.0776 10.04C57.1076 10.05 57.1426 10.09 57.1826 10.16C57.2326 10.23 57.2626 10.275 57.2726 10.295C57.2926 10.315 57.3276 10.375 57.3776 10.475C57.4276 10.575 57.4626 10.64 57.4826 10.67C58.7126 12.9 59.8476 15.76 60.8876 19.25C60.9176 19.37 60.9326 19.485 60.9326 19.595C60.9326 19.865 60.7776 20 60.4676 20H60.1076C59.9376 20 59.8176 19.97 59.7476 19.91C59.6876 19.85 59.6426 19.805 59.6126 19.775C59.5826 19.745 59.5526 19.69 59.5226 19.61C59.4926 19.52 59.4726 19.455 59.4626 19.415C59.4326 19.355 59.3326 19.015 59.1626 18.395C59.0026 17.765 58.8226 17.16 58.6226 16.58H54.0926C53.8426 17.35 53.6476 18.005 53.5076 18.545C53.3676 19.085 53.2876 19.375 53.2676 19.415C53.2576 19.455 53.2376 19.52 53.2076 19.61C53.1776 19.69 53.1476 19.745 53.1176 19.775C53.0876 19.805 53.0476 19.84 52.9976 19.88C52.9176 19.96 52.7926 20 52.6226 20H52.2626C51.9426 20 51.7826 19.865 51.7826 19.595C51.7826 19.525 51.8026 19.41 51.8426 19.25C52.8826 15.76 54.0176 12.9 55.2476 10.67C55.2676 10.64 55.3026 10.575 55.3526 10.475C55.4026 10.375 55.4326 10.315 55.4426 10.295C55.4626 10.275 55.4926 10.23 55.5326 10.16C55.5826 10.09 55.6176 10.05 55.6376 10.04C55.6676 10.02 55.7076 9.99 55.7576 9.95C55.8076 9.91 55.8526 9.885 55.8926 9.875C56.0326 9.845 56.1626 9.83 56.2826 9.83ZM56.3576 11.255C55.7076 12.405 55.0776 13.82 54.4676 15.5H58.2626C57.9026 14.51 57.2676 13.095 56.3576 11.255ZM62.9955 19.445L63.0855 10.55C63.0855 10.06 63.3305 9.815 63.8205 9.815H64.3155C64.8655 9.815 65.2555 10.13 65.4855 10.76C65.7655 11.55 66.2005 12.83 66.7905 14.6C67.3905 16.37 67.8655 17.74 68.2155 18.71C68.5355 17.81 68.9955 16.485 69.5955 14.735C70.2055 12.985 70.6705 11.66 70.9905 10.76C71.2105 10.13 71.5955 9.815 72.1455 9.815H72.6855C72.9155 9.815 73.1005 9.885 73.2405 10.025C73.3805 10.155 73.4505 10.33 73.4505 10.55V11.375L73.5105 19.445C73.5105 19.815 73.3155 20 72.9255 20H72.7905C72.4005 20 72.2055 19.815 72.2055 19.445L72.2505 10.76C70.5405 15.43 69.4855 18.295 69.0855 19.355C68.9155 19.785 68.6305 20 68.2305 20H68.1255C67.7055 20 67.4205 19.785 67.2705 19.355C67.0005 18.615 66.5305 17.255 65.8605 15.275C65.2005 13.285 64.6655 11.78 64.2555 10.76L64.3005 19.445C64.3005 19.815 64.1055 20 63.7155 20H63.5805C63.1905 20 62.9955 19.815 62.9955 19.445ZM81.0268 9.815H86.1718C86.5518 9.815 86.7418 10.005 86.7418 10.385C86.7418 10.755 86.5518 10.94 86.1718 10.94H81.7468V14.15H85.5868C85.9568 14.15 86.1418 14.34 86.1418 14.72C86.1418 15.09 85.9568 15.275 85.5868 15.275H81.7468V19.445C81.7468 19.815 81.5518 20 81.1618 20H81.0268C80.6368 20 80.4418 19.81 80.4418 19.43V10.385C80.4418 10.005 80.6368 9.815 81.0268 9.815ZM89.5079 9.815H89.6429C90.0429 9.815 90.2429 10.01 90.2429 10.4V19.43C90.2429 19.81 90.0429 20 89.6429 20H89.5079C89.1279 20 88.9379 19.81 88.9379 19.43V10.4C88.9379 10.01 89.1279 9.815 89.5079 9.815ZM93.8738 9.815H94.1738C94.5538 9.815 94.8738 10.025 95.1338 10.445L100.294 17.945V10.4C100.294 10.19 100.339 10.04 100.429 9.95C100.519 9.86 100.664 9.815 100.864 9.815H100.999C101.389 9.815 101.584 10.01 101.584 10.4V19.28C101.584 19.49 101.534 19.665 101.434 19.805C101.334 19.935 101.189 20 100.999 20H100.804C100.424 20 100.059 19.745 99.7088 19.235L94.5638 11.75V19.43C94.5638 19.81 94.3838 20 94.0238 20H93.8738C93.4738 20 93.2738 19.81 93.2738 19.43V10.55C93.2738 10.06 93.4738 9.815 93.8738 9.815ZM105.182 9.815H108.167C109.507 9.815 110.637 10.21 111.557 11C112.007 11.4 112.362 11.935 112.622 12.605C112.892 13.275 113.027 14.045 113.027 14.915C113.027 15.785 112.892 16.555 112.622 17.225C112.362 17.885 112.007 18.41 111.557 18.8C110.637 19.6 109.507 20 108.167 20H105.182C104.802 20 104.612 19.815 104.612 19.445V10.385C104.612 10.005 104.802 9.815 105.182 9.815ZM105.902 10.955V18.89H108.047C109.207 18.89 110.117 18.55 110.777 17.87C111.437 17.19 111.767 16.205 111.767 14.915C111.767 13.625 111.437 12.645 110.777 11.975C110.117 11.295 109.207 10.955 108.047 10.955H105.902ZM116.11 9.815H121.285C121.655 9.815 121.84 10.005 121.84 10.385C121.84 10.755 121.655 10.94 121.285 10.94H116.83V14.15H120.79C121.16 14.15 121.345 14.34 121.345 14.72C121.345 15.09 121.16 15.275 120.79 15.275H116.83V18.875H121.285C121.655 18.875 121.84 19.065 121.84 19.445C121.84 19.815 121.655 20 121.285 20H116.11C115.72 20 115.525 19.81 115.525 19.43V10.385C115.525 10.005 115.72 9.815 116.11 9.815ZM125.442 10.94V14.495H127.542C128.162 14.495 128.662 14.34 129.042 14.03C129.432 13.72 129.627 13.28 129.627 12.71C129.627 12.13 129.442 11.69 129.072 11.39C128.712 11.09 128.202 10.94 127.542 10.94H125.442ZM127.587 9.815C128.167 9.815 128.692 9.9 129.162 10.07C129.632 10.23 130.037 10.54 130.377 11C130.717 11.46 130.887 12.065 130.887 12.815C130.887 13.555 130.612 14.175 130.062 14.675C129.512 15.175 128.842 15.455 128.052 15.515C128.402 16.175 128.927 16.92 129.627 17.75C130.337 18.58 131.012 19.215 131.652 19.655C131.452 19.975 131.192 20.135 130.872 20.135C130.552 20.135 130.237 20.03 129.927 19.82C129.627 19.61 129.352 19.365 129.102 19.085C128.852 18.805 128.567 18.43 128.247 17.96C127.907 17.46 127.432 16.665 126.822 15.575H125.442V19.445C125.442 19.815 125.242 20 124.842 20H124.767C124.377 20 124.182 19.815 124.182 19.445V10.4C124.182 10.02 124.377 9.83 124.767 9.83L127.482 9.815C127.512 9.815 127.547 9.815 127.587 9.815Z" fill="#2C3531"/>
<path d="M7.497 9.247H10.479C10.6563 9.247 10.745 9.33567 10.745 9.513C10.745 9.68567 10.6563 9.772 10.479 9.772H9.289V13.734C9.289 13.9113 9.198 14 9.016 14H8.953C8.771 14 8.68 13.9113 8.68 13.734V9.772H7.497C7.31967 9.772 7.231 9.68567 7.231 9.513C7.231 9.33567 7.31967 9.247 7.497 9.247ZM11.9585 9.247H14.3595C14.5368 9.247 14.6255 9.33567 14.6255 9.513C14.6255 9.68567 14.5368 9.772 14.3595 9.772H12.2945V11.27H14.0865C14.2592 11.27 14.3455 11.3587 14.3455 11.536C14.3455 11.7087 14.2592 11.795 14.0865 11.795H12.2945V13.741C12.2945 13.9137 12.2035 14 12.0215 14H11.9585C11.7765 14 11.6855 13.9113 11.6855 13.734V9.513C11.6855 9.33567 11.7765 9.247 11.9585 9.247Z" fill="#2C3531"/>
<circle cx="11.5" cy="11.5" r="7.5" fill="#E9F4F1"/>
<path d="M7.52841 8.40625V7.27273H14.2827V8.40625H11.5597V16H10.2472V8.40625H7.52841Z" fill="#2C3531"/>
<path d="M9.95881 16V7.27273H15.3707V8.40625H11.2756V11.0653H14.983V12.1946H11.2756V16H9.95881Z" fill="#2C3531"/>
<rect x="9" y="9" width="3" height="1" fill="#E9F4F1"/>
<path d="M9 13H12V14H9V13Z" fill="#E9F4F1"/>
</svg>
