<svg width="40" height="40" viewBox="0 0 40 40" fill="none" xmlns="http://www.w3.org/2000/svg">
<path d="M8.33337 5V35H18.3334V29.1667H21.6667V35H31.6667V5H8.33337ZM11.6667 8.33333H15V11.6667H11.6667V8.33333ZM18.3334 8.33333H21.6667V11.6667H18.3334V8.33333ZM25 8.33333H28.3334V11.6667H25V8.33333ZM11.6667 15H15V18.3333H11.6667V15ZM18.3334 15H21.6667V18.3333H18.3334V15ZM25 15H28.3334V18.3333H25V15ZM11.6667 21.6667H15V25H11.6667V21.6667ZM18.3334 21.6667H21.6667V25H18.3334V21.6667ZM25 21.6667H28.3334V25H25V21.6667ZM11.6667 28.3333H15V31.6667H11.6667V28.3333ZM25 28.3333H28.3334V31.6667H25V28.3333Z" fill="#2C3531"/>
</svg>
