<svg width="12" height="14" viewBox="0 0 12 14" fill="none" xmlns="http://www.w3.org/2000/svg">
<path d="M10.0833 1.75004V12.25H6.58333V10.2084H5.41667V12.25H1.91667V1.75004H10.0833ZM7.75 4.08337H8.91667V2.91671H7.75V4.08337ZM5.41667 4.08337H6.58333V2.91671H5.41667V4.08337ZM3.08333 4.08337H4.25V2.91671H3.08333V4.08337ZM7.75 6.41671H8.91667V5.25004H7.75V6.41671ZM5.41667 6.41671H6.58333V5.25004H5.41667V6.41671ZM3.08333 6.41671H4.25V5.25004H3.08333V6.41671ZM7.75 8.75004H8.91667V7.58337H7.75V8.75004ZM5.41667 8.75004H6.58333V7.58337H5.41667V8.75004ZM3.08333 8.75004H4.25V7.58337H3.08333V8.75004ZM7.75 11.0834H8.91667V9.91671H7.75V11.0834ZM3.08333 11.0834H4.25V9.91671H3.08333V11.0834ZM11.25 0.583374H0.75V13.4167H11.25V0.583374Z" fill="#2C3531"/>
</svg>
