<svg width="14" height="14" viewBox="0 0 14 14" fill="none" xmlns="http://www.w3.org/2000/svg">
<path d="M7.00001 2.33325C7.61885 2.33325 8.21234 2.57908 8.64993 3.01667C9.08751 3.45425 9.33334 4.04775 9.33334 4.66659C9.33334 5.28542 9.08751 5.87892 8.64993 6.3165C8.21234 6.75409 7.61885 6.99992 7.00001 6.99992C6.38117 6.99992 5.78768 6.75409 5.35009 6.3165C4.91251 5.87892 4.66668 5.28542 4.66668 4.66659C4.66668 4.04775 4.91251 3.45425 5.35009 3.01667C5.78768 2.57908 6.38117 2.33325 7.00001 2.33325V2.33325ZM7.00001 8.16659C9.57834 8.16659 11.6667 9.21075 11.6667 10.4999V11.6666H2.33334V10.4999C2.33334 9.21075 4.42168 8.16659 7.00001 8.16659Z" fill="#2C3531"/>
</svg>
